<svg xmlns="http://www.w3.org/2000/svg" viewBox="0 0 64 64">
  <defs>
    <linearGradient id="bg" x1="0" y1="0" x2="1" y2="1">
      <stop offset="0" stop-color="#f7e5d2" />
      <stop offset="1" stop-color="#efd3bc" />
    </linearGradient>
    <linearGradient id="heart" x1="0" y1="0" x2="1" y2="1">
      <stop offset="0" stop-color="#ce6b5e" />
      <stop offset="1" stop-color="#b65143" />
    </linearGradient>
  </defs>
  <rect x="4" y="4" width="56" height="56" rx="16" fill="url(#bg)" />
  <path
    d="M32 48.5c-.4 0-.9-.1-1.2-.4C22.3 41.2 14 34.2 14 24.9c0-5.7 4.6-10.4 10.3-10.4 3.3 0 6.4 1.5 8.3 4 1.9-2.5 5-4 8.3-4 5.7 0 10.3 4.7 10.3 10.4 0 9.3-8.3 16.3-16.8 23.2-.3.3-.8.4-1.2.4z"
    fill="url(#heart)"
  />
  <circle cx="32" cy="32" r="27.5" fill="none" stroke="#ffffff" stroke-opacity=".45" stroke-width="1.2" />
</svg>
